<svg xmlns="http://www.w3.org/2000/svg" width="38.85" height="36.253" viewBox="0 0 38.85 36.253"><defs><style>.a{fill:#e53333;}</style></defs><path class="a" d="M41.116,52.913l-18.37,18.37a1.054,1.054,0,0,1-1.491,0L2.884,52.913a1.054,1.054,0,0,1,0-1.491l1.737-1.737a1.054,1.054,0,0,1,1.491,0L22,65.537,37.887,49.684a1.054,1.054,0,0,1,1.491,0l1.737,1.737A1.054,1.054,0,0,1,41.116,52.913Zm0,12.545-1.737-1.737a1.054,1.054,0,0,0-1.491,0L22,79.573,6.113,63.721a1.054,1.054,0,0,0-1.491,0L2.884,65.458a1.054,1.054,0,0,0,0,1.491l18.37,18.37a1.054,1.054,0,0,0,1.491,0l18.37-18.37A1.054,1.054,0,0,0,41.116,65.458Z" transform="translate(-2.575 -49.375)"/></svg>