<svg xmlns="http://www.w3.org/2000/svg" width="40" height="30" viewBox="0 0 40 30"><defs><style>.a{fill:#e53333}</style></defs><path d="M39.242,73.906a.47.47,0,0,1,.758.367V90.25A3.751,3.751,0,0,1,36.25,94H3.75A3.751,3.751,0,0,1,0,90.25V74.281a.467.467,0,0,1,.758-.367C2.508,75.273,4.828,77,12.8,82.789c1.648,1.2,4.43,3.734,7.2,3.719,2.789.023,5.625-2.563,7.211-3.719C35.18,77,37.492,75.266,39.242,73.906ZM20,84c1.813.031,4.422-2.281,5.734-3.234,10.367-7.523,11.156-8.18,13.547-10.055A1.869,1.869,0,0,0,40,69.234V67.75A3.751,3.751,0,0,0,36.25,64H3.75A3.751,3.751,0,0,0,0,67.75v1.484a1.881,1.881,0,0,0,.719,1.477c2.391,1.867,3.18,2.531,13.547,10.055C15.578,81.719,18.187,84.031,20,84Z" class="a" transform="translate(0 -64)"/></svg>