<svg xmlns="http://www.w3.org/2000/svg" viewBox="0 0 468 290"><title>wireframe</title><rect width="468.24" height="289" rx="23.5" fill="#141414"/><rect width="468.24" height="283" rx="23.5" fill="#2d2d2d"/><path d="M33.11,83.92a3.89,3.89,0,0,1-3.88-3.87v-.38a3.89,3.89,0,0,1,3.88-3.87H184.22a3.89,3.89,0,0,1,3.88,3.87v.38a3.89,3.89,0,0,1-3.88,3.87" fill="#fff"/><path d="M33.11,97.92a3.89,3.89,0,0,1-3.88-3.87v-.38a3.89,3.89,0,0,1,3.88-3.87H148.22a3.89,3.89,0,0,1,3.88,3.87v.38a3.89,3.89,0,0,1-3.88,3.87" fill="#fff"/><rect x="29.66" y="115" width="131" height="4.04" rx="1.93" fill="#bfbfbf"/><rect x="29.6" y="123.09" width="147.13" height="4.04" rx="1.93" fill="#bfbfbf"/><rect x="29.97" y="131.17" width="112.4" height="4.04" rx="1.93" fill="#bfbfbf"/><rect x="29.97" y="139.17" width="97.4" height="4.04" rx="1.93" fill="#bfbfbf"/><rect x="385.7" y="22.38" width="62.1" height="4.9" rx="2.34" fill="#fff"/><rect x="314.34" y="22.38" width="62.1" height="4.9" rx="2.34" fill="#fff"/><rect x="242.97" y="22.38" width="62.1" height="4.9" rx="2.34" fill="#fff"/><rect x="171.6" y="22.38" width="62.1" height="4.9" rx="2.34" fill="#fff"/><circle cx="43.62" cy="36.64" r="14.5" fill="#ffd100"/><rect x="30.12" y="159.14" width="68" height="25" rx="2.83" fill="#ffd100"/><rect x="29.82" y="205.47" width="125.6" height="54.04" rx="6" fill="#fff"/><rect x="175.82" y="205.47" width="125.6" height="54.04" rx="6" fill="#fff"/><rect x="321.82" y="205.47" width="125.6" height="54.04" rx="6" fill="#fff"/><rect x="225.12" y="76.1" width="222" height="103.87" rx="6" fill="#fff"/></svg>